<svg width="18" height="17" viewBox="0 0 18 17" fill="none" xmlns="http://www.w3.org/2000/svg">
<path fill-rule="evenodd" clip-rule="evenodd" d="M2.20921 11.0289C0.14867 5.97118 3.86952 0.4375 9.33085 0.4375H9.62548C13.7098 0.4375 17.0208 3.74851 17.0208 7.83284C17.0208 12.3803 13.3344 16.0667 8.787 16.0667H1.61841C1.32667 16.0667 1.0667 15.8825 0.969878 15.6073C0.873053 15.3321 0.960457 15.0258 1.18792 14.8431L2.99512 13.3918C3.07414 13.3283 3.10209 13.2205 3.06386 13.1266L2.20921 11.0289ZM9.33085 1.8125C4.84602 1.8125 1.79048 6.35674 3.48259 10.5101L4.33723 12.6079C4.6049 13.2649 4.40923 14.0196 3.8561 14.4639L3.57244 14.6917H8.787C12.575 14.6917 15.6458 11.6209 15.6458 7.83284C15.6458 4.5079 12.9504 1.8125 9.62548 1.8125H9.33085Z" fill="#6D747A"/>
</svg>
