<svg width="14" height="17" viewBox="0 0 14 17" fill="none" xmlns="http://www.w3.org/2000/svg">
<path d="M8.64634 0.791454C7.74579 -0.138613 6.25416 -0.138614 5.35361 0.791449L0.955004 5.33421C0.702386 5.5951 0.532632 5.92493 0.467131 6.28213C-0.0670655 9.19527 -0.106497 12.1776 0.350492 15.1039L0.512286 16.1399C0.563389 16.4671 0.845231 16.7083 1.17643 16.7083H4.24998C4.50311 16.7083 4.70831 16.5031 4.70831 16.25V9.83335H9.29164V16.25C9.29164 16.5031 9.49684 16.7083 9.74997 16.7083H12.8235C13.1547 16.7083 13.4365 16.4671 13.4876 16.1399L13.6494 15.1039C14.1064 12.1776 14.067 9.19527 13.5328 6.28213C13.4673 5.92493 13.2975 5.5951 13.0449 5.33421L8.64634 0.791454Z" fill="#598BED"/>
</svg>
