<svg width="18" height="18" viewBox="0 0 18 18" fill="none" xmlns="http://www.w3.org/2000/svg">
<path fill-rule="evenodd" clip-rule="evenodd" d="M6.18507 2.09777C5.01979 1.96753 3.81354 1.96753 2.64826 2.09777C2.36511 2.12942 2.14181 2.35362 2.10996 2.62593C1.97081 3.81571 1.97081 5.01765 2.10996 6.20743C2.14181 6.47973 2.36511 6.70394 2.64826 6.73558C3.81354 6.86582 5.01979 6.86582 6.18507 6.73558C6.46822 6.70394 6.69152 6.47973 6.72337 6.20743C6.86252 5.01765 6.86252 3.8157 6.72337 2.62593C6.69152 2.35362 6.46822 2.12942 6.18507 2.09777ZM2.49553 0.731278C3.76232 0.589696 5.07101 0.589696 6.3378 0.731278C7.24607 0.83279 7.98164 1.54778 8.08906 2.4662C8.24063 3.7621 8.24063 5.07125 8.08906 6.36716C7.98164 7.28558 7.24607 8.00056 6.3378 8.10208C5.07101 8.24366 3.76232 8.24366 2.49553 8.10208C1.58726 8.00056 0.851689 7.28558 0.744272 6.36716C0.592704 5.07125 0.592704 3.7621 0.744272 2.4662C0.851689 1.54778 1.58726 0.83279 2.49553 0.731278Z" fill="#6D747A"/>
<path fill-rule="evenodd" clip-rule="evenodd" d="M6.18507 11.2644C5.01979 11.1342 3.81354 11.1342 2.64826 11.2644C2.36511 11.2961 2.14181 11.5203 2.10996 11.7926C1.97081 12.9824 1.97081 14.1843 2.10996 15.3741C2.14181 15.6464 2.36511 15.8706 2.64826 15.9023C3.81354 16.0325 5.01979 16.0325 6.18507 15.9023C6.46822 15.8706 6.69152 15.6464 6.72337 15.3741C6.86252 14.1843 6.86252 12.9824 6.72337 11.7926C6.69152 11.5203 6.46822 11.2961 6.18507 11.2644ZM2.49553 9.89795C3.76232 9.75636 5.07101 9.75636 6.3378 9.89795C7.24607 9.99946 7.98164 10.7144 8.08906 11.6329C8.24063 12.9288 8.24063 14.2379 8.08906 15.5338C7.98164 16.4522 7.24607 17.1672 6.3378 17.2687C5.07101 17.4103 3.76232 17.4103 2.49553 17.2687C1.58726 17.1672 0.851689 16.4522 0.744272 15.5338C0.592704 14.2379 0.592704 12.9288 0.744272 11.6329C0.851689 10.7144 1.58726 9.99946 2.49553 9.89795Z" fill="#6D747A"/>
<path fill-rule="evenodd" clip-rule="evenodd" d="M15.3517 2.09777C14.1865 1.96753 12.9802 1.96753 11.8149 2.09777C11.5318 2.12942 11.3085 2.35362 11.2766 2.62593C11.1375 3.81571 11.1375 5.01765 11.2766 6.20743C11.3085 6.47973 11.5318 6.70394 11.8149 6.73558C12.9802 6.86582 14.1865 6.86582 15.3517 6.73558C15.6349 6.70394 15.8582 6.47973 15.89 6.20743C16.0292 5.01765 16.0292 3.8157 15.89 2.62593C15.8582 2.35362 15.6349 2.12942 15.3517 2.09777ZM11.6622 0.731278C12.929 0.589696 14.2377 0.589696 15.5045 0.731278C16.4127 0.83279 17.1483 1.54778 17.2557 2.4662C17.4073 3.7621 17.4073 5.07125 17.2557 6.36716C17.1483 7.28558 16.4127 8.00056 15.5045 8.10208C14.2377 8.24366 12.929 8.24366 11.6622 8.10208C10.7539 8.00056 10.0184 7.28558 9.91094 6.36716C9.75937 5.07125 9.75937 3.7621 9.91094 2.4662C10.0184 1.54778 10.7539 0.83279 11.6622 0.731278Z" fill="#6D747A"/>
<path fill-rule="evenodd" clip-rule="evenodd" d="M15.3517 11.2644C14.1865 11.1342 12.9802 11.1342 11.8149 11.2644C11.5318 11.2961 11.3085 11.5203 11.2766 11.7926C11.1375 12.9824 11.1375 14.1843 11.2766 15.3741C11.3085 15.6464 11.5318 15.8706 11.8149 15.9023C12.9802 16.0325 14.1865 16.0325 15.3517 15.9023C15.6349 15.8706 15.8582 15.6464 15.89 15.3741C16.0292 14.1843 16.0292 12.9824 15.89 11.7926C15.8582 11.5203 15.6349 11.2961 15.3517 11.2644ZM11.6622 9.89795C12.929 9.75636 14.2377 9.75636 15.5045 9.89795C16.4127 9.99946 17.1483 10.7144 17.2557 11.6329C17.4073 12.9288 17.4073 14.2379 17.2557 15.5338C17.1483 16.4522 16.4127 17.1672 15.5045 17.2687C14.2377 17.4103 12.929 17.4103 11.6622 17.2687C10.7539 17.1672 10.0184 16.4522 9.91094 15.5338C9.75937 14.2379 9.75937 12.9288 9.91094 11.6329C10.0184 10.7144 10.7539 9.99946 11.6622 9.89795Z" fill="#6D747A"/>
</svg>
