<svg width="22" height="20" viewBox="0 0 22 20" fill="none" xmlns="http://www.w3.org/2000/svg">
<path fill-rule="evenodd" clip-rule="evenodd" d="M10.4898 2.11084C7.68914 0.43042 4.26388 0.155963 1.23133 1.36898C0.789632 1.54566 0.5 1.97346 0.5 2.44918V14.1081C0.5 14.889 1.28876 15.423 2.01387 15.133C4.49721 14.1397 7.30215 14.3644 9.59563 15.7405L10.7309 16.4217C10.8175 16.4736 10.9101 16.4963 11 16.4947C11.0899 16.4963 11.1825 16.4736 11.2691 16.4217L12.4044 15.7405C14.6979 14.3644 17.5028 14.1397 19.9861 15.133C20.7112 15.423 21.5 14.889 21.5 14.1081V2.44918C21.5 1.97346 21.2104 1.54566 20.7687 1.36898C17.7361 0.155963 14.3109 0.43042 11.5102 2.11084L11 2.41694L10.4898 2.11084ZM11.75 4.50003C11.75 4.08582 11.4142 3.75003 11 3.75003C10.5858 3.75003 10.25 4.08582 10.25 4.50003V14C10.25 14.4142 10.5858 14.75 11 14.75C11.4142 14.75 11.75 14.4142 11.75 14V4.50003Z" fill="#598BED"/>
<path d="M1.72484 17.0423C3.7487 15.8617 6.2513 15.8617 8.27516 17.0423L9.36242 17.6765C10.3743 18.2668 11.6257 18.2668 12.6376 17.6765L13.7248 17.0423C15.7487 15.8617 18.2513 15.8617 20.2752 17.0423L20.3779 17.1022C20.7357 17.3109 20.8565 17.7701 20.6478 18.1279C20.4391 18.4857 19.9799 18.6066 19.6221 18.3979L19.5194 18.3379C17.9625 17.4298 16.0375 17.4298 14.4806 18.3379L13.3934 18.9722C11.9144 19.8349 10.0856 19.8349 8.60661 18.9722L7.51935 18.3379C5.96254 17.4298 4.03746 17.4298 2.48065 18.3379L2.3779 18.3979C2.02011 18.6066 1.56088 18.4857 1.35217 18.1279C1.14346 17.7701 1.26431 17.3109 1.6221 17.1022L1.72484 17.0423Z" fill="#598BED"/>
</svg>
