<svg width="20" height="18" viewBox="0 0 20 18" fill="none" xmlns="http://www.w3.org/2000/svg">
<path fill-rule="evenodd" clip-rule="evenodd" d="M9.63543 15.083C9.75273 15.1534 9.87813 15.1845 10 15.183C10.1219 15.1845 10.2473 15.1534 10.3646 15.083L11.4052 14.4586C13.4462 13.234 15.9423 13.034 18.1522 13.918C18.9674 14.2441 19.8542 13.6437 19.8542 12.7657V2.07837C19.8542 1.54859 19.5316 1.07218 19.0397 0.875417C16.1934 -0.263115 12.9785 -0.00551105 10.3497 1.57172L10 1.78156L9.65026 1.57172C7.02154 -0.00551105 3.8066 -0.263115 0.960274 0.875417C0.468379 1.07218 0.145832 1.54859 0.145832 2.07837V12.7657C0.145832 13.6437 1.03261 14.2441 1.84782 13.918C4.05772 13.034 6.55381 13.234 8.59476 14.4586L9.63543 15.083ZM1.52083 2.1323V12.5702C4.08364 11.6095 6.94914 11.8677 9.30219 13.2795L9.3125 13.2857V2.97258L8.94283 2.75078C6.69793 1.40383 3.95581 1.17619 1.52083 2.1323ZM10.6978 13.2795L10.6875 13.2857V2.97258L11.0572 2.75078C13.3021 1.40383 16.0442 1.17619 18.4792 2.1323V12.5702C15.9164 11.6095 13.0509 11.8677 10.6978 13.2795Z" fill="#6D747A"/>
<path d="M7.50223 15.4554C5.64703 14.3732 3.35297 14.3732 1.49777 15.4554L1.40359 15.5103C1.07561 15.7016 0.964833 16.1226 1.15615 16.4506C1.34747 16.7785 1.76844 16.8893 2.09641 16.698L2.19059 16.6431C3.61767 15.8106 5.38233 15.8106 6.80941 16.6431L7.80606 17.2244C9.16178 18.0153 10.8382 18.0153 12.1939 17.2244L13.1906 16.6431C14.6177 15.8106 16.3823 15.8106 17.8094 16.6431L17.9036 16.698C18.2316 16.8893 18.6525 16.7785 18.8438 16.4506C19.0352 16.1226 18.9244 15.7016 18.5964 15.5103L18.5022 15.4554C16.647 14.3732 14.353 14.3732 12.4978 15.4554L11.5011 16.0368C10.5735 16.5779 9.42648 16.5779 8.49888 16.0368L7.50223 15.4554Z" fill="#6D747A"/>
</svg>
