<svg width="16" height="18" viewBox="0 0 16 18" fill="none" xmlns="http://www.w3.org/2000/svg">
<path fill-rule="evenodd" clip-rule="evenodd" d="M8.01985 0.5C8.14171 0.5 8.23517 0.608047 8.21905 0.728834C7.94305 2.79611 7.97722 4.89429 8.32152 6.9538L8.33613 7.04122C8.35314 7.14293 8.43084 7.22376 8.5318 7.24476C8.63276 7.26576 8.73625 7.22262 8.7924 7.13612L10.4161 4.63486C10.4556 4.57413 10.5445 4.57413 10.5839 4.63486L12.2076 7.13612C12.2638 7.22262 12.3672 7.26576 12.4682 7.24476C12.5692 7.22376 12.6469 7.14293 12.6639 7.04122L12.6785 6.9538C13.0228 4.89429 13.057 2.79611 12.781 0.728834C12.7648 0.608046 12.8583 0.5 12.9802 0.5L14.5 0.5C15.3284 0.5 16 1.17157 16 2V17C16 17.5523 15.5523 18 15 18H3.5C1.73676 18 0.278059 16.6961 0.0354444 15H0V5C0 2.51472 2.01472 0.5 4.5 0.5L8.01985 0.5ZM3.5 12.5H14.5V16.5H3.5C2.39543 16.5 1.5 15.6046 1.5 14.5C1.5 13.3954 2.39543 12.5 3.5 12.5Z" fill="#598BED"/>
</svg>
